# xmcd
#
# Track frame offsets:
#	150
#	10165
#	23623
#	32570
#	42345
#	51638
#	64066
#	75472
#	87152
#	96540
#
# Disc length: 1427 seconds
#
# Revision: 0
# Processed by: cddbd v1.5.1PL0 Copyright (c) Steve Scherf et al.
# Submitted via: dBpowerAMP V4.0
#
DISCID=7705910a
DTITLE=George Jones - The Crown Prince Of Country Music
DYEAR=2005
DGENRE=Country
TTITLE0=Heartaches And hangovers
TTITLE1=Almost Persuaded
TTITLE2=The Love Bug
TTITLE3=Honky Tonk Downstairs
TTITLE4=Living On Easy Street
TTITLE5=Take Me
TTITLE6=Talk Back Trembling Lips
TTITLE7=We Must Have Been Out Of Our Minds
TTITLE8=The Race Is On
TTITLE9=I'm Ragged But Right
EXTD=
EXTT0=
EXTT1=
EXTT2=
EXTT3=
EXTT4=
EXTT5=
EXTT6=
EXTT7=
EXTT8=
EXTT9=
PLAYORDER=
